<svg xmlns="http://www.w3.org/2000/svg" width="340" height="420"><g fill="#fff"><path d="M299.9 175V85L170 10 40.1 85v120l26-15v-90L170 40l103.9 60v60l-26 15v-60L222 100l-52 30-52-30-25.9 15v90l-52 30L170 310l129.9-75v-30L170 280l-77.9-45 25.9-15v-90l52 30 52-30v90zM45 389.3l19.8-23V410h17.7v-69.9l-15-.1L45 366l-22.5-26-15 .1V410h17.7v-43.7zM142 340h-24l-25.5 70H110l5.3-15h29.3l5.3 15h17.5L142 340zm-22.3 42.8l10.3-29 10.3 29h-20.6zM247.5 340v40c0 11.1-7 20.8-17.5 26-5.1 2.6-11.1 4-17.5 4s-12.4-1.5-17.5-4c-10.5-5.2-17.5-14.9-17.5-26v-40H195v40c0 8.3 7.8 15 17.5 15s17.5-6.7 17.5-15v-40h17.5zM303.8 375l28.7 35H315l-20-24.4-20 24.4h-17.5l28.8-35-28.8-35H275l20 24.4 20-24.4h17.5z"/></g></svg>