<svg enable-background="new 0 0 108 44" viewBox="0 0 108 44" xmlns="http://www.w3.org/2000/svg"><g fill="#202020"><path d="M36.3 24V12L18.9 2 1.6 12V28L5.1 26V14L18.9 6 32.8 14v8L29.3 24V16L25.9 14l-7 4L12 14 8.6 16V28l-7 4L18.9 42 36.3 32V28L18.9 38 8.6 32 12 30V18L18.9 22l7-4V30z"/><path d="M49.8 24.9 53.7 20.3V29H57.3V15h-3L49.8 20.2 45.3 15h-3V29h3.5V20.3z"/><path d="m69.2 15h-4.8l-5.1 14h3.5l1.1-3h5.9l1.1 3h3.5l-5.2-14zm-4.5 8.6 2.1-5.8 2.1 5.8h-4.2z"/><path d="m90.3 15v8c0 2.2-1.4 4.2-3.5 5.2-1 .5-2.2.8-3.5.8s-2.5-.3-3.5-.8c-2.1-1-3.5-3-3.5-5.2v-8h3.5v8c0 1.7 1.6 3 3.5 3s3.5-1.3 3.5-3v-8h3.5z"/><path d="M101.5 22 107.3 29h-3.5L99.8 24.1 95.8 29H92.3L98 22 92.3 15h3.5L99.8 19.9 103.8 15h3.5z"/></g></svg>