<svg id="Layer_1" xmlns="http://www.w3.org/2000/svg" xmlns:xlink="http://www.w3.org/1999/xlink" width="800" height="600" viewBox="0 0 800 600" enable-background="new 0 0 800 600"><g><path fill="#fff" d="M585.7 250V121.4L4e2 14.3 214.3 121.4v171.4l37.1-21.4V142.9L4e2 57.1l148.6 85.7v85.7L511.4 250v-85.7l-37.1-21.4L4e2 185.7l-74.3-42.9-37.1 21.4v128.6l-74.3 42.9L4e2 442.9l185.7-107.1v-42.9L4e2 4e2l-111.4-64.3 37.1-21.4V185.7l74.3 42.9 74.3-42.9v128.6L585.7 250z"/><path fill="#fff" d="M221.4 555.7l28.6-32.9v62.9h25.7v-1e2h-21.4l-32.9 37.1L190 485.7h-21.4v1e2h24.3v-62.9L221.4 555.7z"/><path fill="#fff" d="M360 485.7h-34.3l-35.7 1e2h24.3l7.1-21.4h41.4l8.6 21.4h25.7L360 485.7zM328.6 547.1l14.3-41.4 14.3 41.4H328.6z"/><path fill="#fff" d="M511.4 485.7v57.1c0 15.7-10 30-25.7 37.1-7.1 4.3-15.7 5.7-25.7 5.7s-17.1-1.4-25.7-5.7c-14.3-7.1-25.7-21.4-25.7-37.1v-57.1h25.7v57.1c0 11.4 11.4 21.4 25.7 21.4s25.7-10 25.7-21.4v-57.1H511.4z"/><path fill="#fff" d="M591.4 535.7l41.4 50h-25.7l-28.6-34.3L550 585.7h-24.3l40-50-40-50H550l28.6 34.3 28.6-34.3h25.7L591.4 535.7z"/></g></svg>