<svg xmlns="http://www.w3.org/2000/svg" width="540" height="220"><g fill="#202020"><path d="M179.1 120V60L92.5 10 5.9 60v80l17.3-10V70l69.3-40 69.3 40v40l-17.3 10V80l-17.4-10-34.6 20-34.6-20-17.4 10v60L5.9 160l86.6 50 86.6-50v-20l-86.6 50-52-30 17.4-10V90l34.6 20 34.6-20v60zM246.6 124.3l19.8-23V145h17.7V75.1l-15-.1-22.5 26-22.5-26-15 .1V145h17.7v-43.7zM343.6 75h-24.1L294 145h17.5l5.3-15h29.3l5.3 15h17.5l-25.3-70zm-22.3 42.8l10.3-29 10.3 29h-20.6zM449.1 75v40c0 11.1-7 20.8-17.5 26-5.1 2.6-11.1 4-17.5 4s-12.4-1.5-17.5-4c-10.5-5.2-17.5-14.9-17.5-26V75h17.5v40c0 8.3 7.8 15 17.5 15s17.5-6.7 17.5-15V75h17.5zM505.3 110l28.8 35h-17.5l-20-24.4-20 24.4h-17.5l28.7-35-28.7-35h17.5l20 24.4 20-24.4h17.5z"/></g></svg>