<svg id="Layer_1" xmlns="http://www.w3.org/2000/svg" xmlns:xlink="http://www.w3.org/1999/xlink" width="800" height="600" viewBox="0 0 800 600" enable-background="new 0 0 800 600"><g><path fill="#fff" d="M268.9 314.8v-88.9L140 151.9l-128.1 74v118.5l25.9-14.8v-88.9L140 181.5l103 59.3V3e2L217 314.8v-59.3l-25.2-14.8L140 270.4l-51.1-29.6-25.2 14.8v88.9l-51.9 29.6 128.2 74L268.9 374v-29.6L140 418.5l-76.3-44.4 25.2-14.8v-88.9L140 3e2l51.9-29.6v88.9L268.9 314.8z"/><path fill="#fff" d="M368.9 321.5l28.9-34.1v64.4h26.7V248.1h-22.2l-33.3 38.5-33.3-38.5h-22.2v103.7h25.9v-64.4L368.9 321.5z"
		/><path fill="#fff" d="M512.6 248.1H477l-37.8 103.7h25.9l8.1-22.2H517l8.1 22.2H551L512.6 248.1zM479.3 311.9l15.6-43 15.6 43H479.3z"/><path fill="#fff" d="M668.9 248.1v59.3c0 16.3-10.4 31.1-25.9 38.5-7.4 3.7-16.3 5.9-25.9 5.9s-18.5-2.2-25.9-5.9c-15.6-7.4-25.9-22.2-25.9-38.5v-59.3h25.9v59.3c0 12.6 11.9 22.2 25.9 22.2S643 320 643 307.4v-59.3H668.9z"/><path fill="#fff" d="M751.9 3e2l43 51.9H769l-29.6-36.3-29.6 36.3h-25.9l42.2-51.9-42.2-51.9h25.9l29.6 36.3 29.6-36.3h25.9L751.9 3e2z"/></g></svg>