<svg enable-background="new 0 0 34 42" viewBox="0 0 34 42" xmlns="http://www.w3.org/2000/svg"><g fill="#202020"><path d="M30 17.5v-9L17 1 4 8.5v12L6.6 19V10L17 4 27.4 10v6L24.8 17.5v-6L22.2 10 17 13 11.8 10 9.2 11.5v9L4 23.5 17 31l13-7.5v-3L17 28 9.2 23.5 11.8 22V13L17 16 22.2 13v9z"/><path d="M4.5 38.9 6.5 36.6V41H8.3V34H6.8L4.5 36.6 2.3 34H.8v7H2.5V36.6z"/><path d="M14.2 34h-2.4l-2.5 7H11l.5-1.5h2.9L15 41h1.8L14.2 34zM12 38.3l1-2.9 1 2.9H12z"/><path d="m24.8 34v4c0 1.1-.7 2.1-1.8 2.6-.5.3-1.1.4-1.8.4s-1.2-.1-1.8-.4c-1-.5-1.8-1.5-1.8-2.6v-4h1.8v4c0 .8.8 1.5 1.8 1.5S23 38.8 23 38v-4h1.8z"/><path d="M30.4 37.5 33.3 41H31.5L29.5 38.6 27.5 41H25.8L28.6 37.5 25.8 34H27.5L29.5 36.4 31.5 34H33.3z"/></g></svg>